<svg width="89" height="89" viewBox="0 0 89 89" fill="none" xmlns="http://www.w3.org/2000/svg">
<g id="Group 367">
<path id="Union" d="M13.0337 13.0337C4.68839 21.3791 0 32.6979 0 44.5C0 56.3021 4.68839 67.6209 13.0337 75.9663C21.3791 84.3116 32.6978 89 44.5 89C56.3022 89 67.6209 84.3116 75.9663 75.9663C84.3116 67.6209 89 56.3021 89 44.5C89 32.6979 84.3116 21.3791 75.9663 13.0337C67.6209 4.68837 56.3022 0 44.5 0C32.6978 0 21.3791 4.68837 13.0337 13.0337Z" fill="#EF4444"/>
<path id="Vector" fill-rule="evenodd" clip-rule="evenodd" d="M28.8191 33.2939L33.2926 28.8203L44.9239 40.4515L56.5551 28.8203L61.0286 33.2939L49.3974 44.9251L61.0286 56.5563L56.5551 61.0298L44.9239 49.3986L33.2926 61.0298L28.8191 56.5563L40.4503 44.9251L28.8191 33.2939Z" fill="#F9FAFB"/>
</g>
</svg>
