<svg width="56" height="40" viewBox="0 0 56 40" fill="none" xmlns="http://www.w3.org/2000/svg">
<path id="Vector" opacity="0.8" d="M54.3507 2.00536C50.9566 0.552679 47.5599 1.07389e-07 44.1649 1.07389e-07C33.3877 -0.00089275 22.6114 5.56607 11.8342 5.56607C9.13136 5.56607 6.43027 5.21607 3.72744 4.34107C3.42382 4.24286 3.11933 4.19643 2.82183 4.19643C1.31598 4.19643 0 5.38571 0 7.03661V35.3634C0 36.4911 0.632615 37.5598 1.64847 37.9938C5.04255 39.4473 8.43924 40 11.8342 40C22.6114 40 33.3886 34.433 44.1658 34.433C46.8686 34.433 49.5697 34.783 52.2726 35.658C52.5762 35.7563 52.8807 35.8027 53.1782 35.8027C54.684 35.8027 56 34.6134 56 32.9625V4.63661C55.9991 3.50804 55.3665 2.44018 54.3507 2.00536ZM4.19993 8.94821C5.96041 9.39821 7.79788 9.62411 9.68785 9.74554C9.17336 12.3696 6.91239 14.3473 4.19993 14.3473V8.94821ZM4.19993 34.3946V30.1286C7.20726 30.1286 9.6406 32.5634 9.77447 35.6107C7.80313 35.4491 5.96041 35.0473 4.19993 34.3946ZM27.9996 28.5714C24.133 28.5714 20.9997 24.733 20.9997 20C20.9997 15.2661 24.1339 11.4286 27.9996 11.4286C31.8653 11.4286 34.9995 15.2661 34.9995 20C34.9995 24.7348 31.8644 28.5714 27.9996 28.5714ZM51.7992 31.0518C50.2662 30.6598 48.6746 30.4402 47.0463 30.2982C47.5599 27.9696 49.4525 26.2018 51.7992 25.8982V31.0518ZM51.7992 9.97054C49.0964 9.62143 46.999 7.31875 46.9159 4.475C48.6256 4.66875 50.2487 5.03125 51.7992 5.60536V9.97054Z" fill="#111827"/>
</svg>
