<svg width="89" height="89" viewBox="0 0 89 89" fill="none" xmlns="http://www.w3.org/2000/svg">
<path id="Vector" fillRule="evenodd" clipRule="evenodd" d="M0 44.5C0 32.6979 4.68838 21.3791 13.0337 13.0337C21.3791 4.68838 32.6979 0 44.5 0C56.3021 0 67.6209 4.68838 75.9663 13.0337C84.3116 21.3791 89 32.6979 89 44.5C89 56.3021 84.3116 67.6209 75.9663 75.9663C67.6209 84.3116 56.3021 89 44.5 89C32.6979 89 21.3791 84.3116 13.0337 75.9663C4.68838 67.6209 0 56.3021 0 44.5ZM41.9605 63.546L67.5807 31.5179L62.9527 27.8155L41.1061 55.1147L25.632 42.2216L21.8347 46.7784L41.9605 63.546Z" fill="#FCD34D"/>
</svg>
