<svg width="34" height="32" viewBox="0 0 34 32" fill="none" xmlns="http://www.w3.org/2000/svg">
<path id="Vector" d="M16.53 0C7.4605 0 0.0400085 6.99647 0.0400085 15.6135C0.0400085 23.4047 6.07534 29.8713 13.9576 31.04V20.1324H9.7691V15.6135H13.9576V12.1698C13.9576 8.25864 16.4146 6.10827 20.1908 6.10827C21.9882 6.10827 23.868 6.40434 23.868 6.40434V10.2532H21.7903C19.7455 10.2532 19.1024 11.453 19.1024 12.684V15.6135H23.6866L22.9446 20.1324H19.1024V31.04C22.9882 30.4601 26.5266 28.5866 29.0787 25.7577C31.6309 22.9288 33.0288 19.3309 33.02 15.6135C33.02 6.99647 25.5995 0 16.53 0Z" fill="#111827"/>
</svg>
