<svg width="37" height="31" viewBox="0 0 37 31" fill="none" xmlns="http://www.w3.org/2000/svg">
<path id="Vector" d="M30.8512 1.90369L28.4931 3.83225L18.4523 11.6429L8.41156 3.75511L6.05337 1.82654C5.49782 1.34546 4.81965 1.04555 4.10287 0.963995C3.38609 0.882436 2.66219 1.0228 2.02088 1.36771C1.37956 1.71261 0.849 2.2469 0.494927 2.90437C0.140855 3.56184 -0.0211698 4.3136 0.0289261 5.06653V27.4186C0.0289261 28.1142 0.292906 28.7813 0.762793 29.2732C1.23268 29.7651 1.86998 30.0414 2.53451 30.0414H8.41156V15.1529L18.4523 23.0407L28.4931 15.1529V30.0414H34.3701C35.0346 30.0414 35.6719 29.7651 36.1418 29.2732C36.6117 28.7813 36.8757 28.1142 36.8757 27.4186V5.06653C36.9103 4.3201 36.737 3.57923 36.3769 2.93397C36.0168 2.28871 35.4853 1.76685 34.8472 1.43183C34.2091 1.0968 33.4917 0.963049 32.7823 1.04682C32.0729 1.13059 31.402 1.42827 30.8512 1.90369Z" fill="#111827"/>
</svg>
