<svg width="32" height="32" viewBox="0 0 32 32" fill="none" xmlns="http://www.w3.org/2000/svg">
<path id="Vector" d="M9.0016 0H22.0384C27.0048 0 31.04 4.0352 31.04 9.0016V22.0384C31.04 24.4258 30.0916 26.7154 28.4035 28.4035C26.7154 30.0916 24.4258 31.04 22.0384 31.04H9.0016C4.0352 31.04 0 27.0048 0 22.0384V9.0016C0 6.61423 0.948381 4.32464 2.63651 2.63651C4.32464 0.94838 6.61423 0 9.0016 0ZM8.6912 3.104C7.20938 3.104 5.78826 3.69265 4.74045 4.74045C3.69265 5.78826 3.104 7.20938 3.104 8.6912V22.3488C3.104 25.4373 5.60272 27.936 8.6912 27.936H22.3488C23.8306 27.936 25.2517 27.3474 26.2996 26.2995C27.3474 25.2517 27.936 23.8306 27.936 22.3488V8.6912C27.936 5.60272 25.4373 3.104 22.3488 3.104H8.6912ZM23.668 5.432C24.1825 5.432 24.676 5.63639 25.0398 6.00021C25.4036 6.36403 25.608 6.85748 25.608 7.372C25.608 7.88652 25.4036 8.37997 25.0398 8.74379C24.676 9.10761 24.1825 9.312 23.668 9.312C23.1535 9.312 22.66 9.10761 22.2962 8.74379C21.9324 8.37997 21.728 7.88652 21.728 7.372C21.728 6.85748 21.9324 6.36403 22.2962 6.00021C22.66 5.63639 23.1535 5.432 23.668 5.432ZM15.52 7.76C17.5781 7.76 19.5519 8.57757 21.0071 10.0329C22.4624 11.4881 23.28 13.4619 23.28 15.52C23.28 17.5781 22.4624 19.5519 21.0071 21.0071C19.5519 22.4624 17.5781 23.28 15.52 23.28C13.4619 23.28 11.4881 22.4624 10.0329 21.0071C8.57757 19.5519 7.76 17.5781 7.76 15.52C7.76 13.4619 8.57757 11.4881 10.0329 10.0329C11.4881 8.57757 13.4619 7.76 15.52 7.76ZM15.52 10.864C14.2852 10.864 13.1009 11.3545 12.2277 12.2277C11.3545 13.1009 10.864 14.2852 10.864 15.52C10.864 16.7548 11.3545 17.9391 12.2277 18.8123C13.1009 19.6855 14.2852 20.176 15.52 20.176C16.7548 20.176 17.9391 19.6855 18.8123 18.8123C19.6855 17.9391 20.176 16.7548 20.176 15.52C20.176 14.2852 19.6855 13.1009 18.8123 12.2277C17.9391 11.3545 16.7548 10.864 15.52 10.864Z" fill="#111827"/>
</svg>
