<svg width="114" height="52" viewBox="0 0 114 52" fill="none" xmlns="http://www.w3.org/2000/svg">
<g id="Group 28">
<g id="PADELINK">
<path d="M0 51.217L3.2702 35.7317H10.9167C12.4877 35.7317 13.6899 36.1485 14.5235 36.9821C15.3571 37.7996 15.7739 38.8416 15.7739 40.108C15.7739 40.5248 15.7258 40.9656 15.6296 41.4305C15.4052 42.5206 15.0124 43.4904 14.4514 44.34C13.9063 45.1896 13.185 45.8549 12.2873 46.3358C11.4056 46.8167 10.3236 47.0571 9.04113 47.0571H5.38621L4.52057 51.217H0ZM6.13162 43.5946H8.46404C9.28158 43.5946 9.87471 43.3942 10.2434 42.9934C10.6281 42.5927 10.8846 42.0717 11.0129 41.4305C11.0449 41.2702 11.069 41.1179 11.085 40.9736C11.101 40.8293 11.109 40.6931 11.109 40.5648C11.109 40.132 10.9888 39.7954 10.7484 39.5549C10.5239 39.3145 10.1152 39.1943 9.52204 39.1943H7.06939L6.13162 43.5946Z" fill="#111827"/>
<path d="M12.3397 51.217L21.5491 35.7317H26.3342L29.0033 51.217H24.2903L23.7373 47.9228H19.0244L17.0526 51.217H12.3397ZM20.2988 44.6766H23.7613L22.9919 40.132L20.2988 44.6766Z" fill="#111827"/>
<path d="M30.7144 51.217L33.9846 35.7317H40.9098C42.112 35.7317 43.17 35.9321 44.0838 36.3328C45.0135 36.7336 45.7349 37.3508 46.2479 38.1843C46.7608 39.0179 47.0173 40.0759 47.0173 41.3584C47.0173 41.695 46.9933 42.0477 46.9452 42.4164C46.9131 42.7851 46.857 43.1698 46.7769 43.5705C46.4242 45.3499 45.8792 46.8007 45.1418 47.9228C44.4044 49.0449 43.4345 49.8785 42.2323 50.4235C41.046 50.9525 39.5712 51.217 37.8079 51.217H30.7144ZM35.9564 47.7545H37.7838C38.5373 47.7545 39.1945 47.6503 39.7556 47.4419C40.3166 47.2175 40.7975 46.8087 41.1983 46.2156C41.5991 45.6064 41.9197 44.7247 42.1601 43.5705C42.2403 43.1538 42.3044 42.769 42.3525 42.4164C42.4006 42.0637 42.4246 41.7431 42.4246 41.4545C42.4246 40.5889 42.2002 39.9958 41.7514 39.6752C41.3025 39.3546 40.5891 39.1943 39.6113 39.1943H37.7838L35.9564 47.7545Z" fill="#111827"/>
<path d="M46.8466 51.217L50.1168 35.7317H61.851L61.1296 39.1943H53.916L53.3629 41.719H59.6869L58.9415 45.2297H52.6175L52.0885 47.7545H59.3022L58.5808 51.217H46.8466Z" fill="#111827"/>
<path d="M60.0434 51.217L63.3136 35.7317H67.8342L65.2854 47.7545H72.2586L71.5372 51.217H60.0434Z" fill="#111827"/>
<path d="M72.7707 51.217L76.0409 35.7317H80.5614L77.2912 51.217H72.7707Z" fill="#111827"/>
<path d="M79.4865 51.217L82.7567 35.7317H86.604L90.7158 43.9312L92.4471 35.7317H96.9677L93.6975 51.217H89.8261L85.7384 43.0415L84.0071 51.217H79.4865Z" fill="#111827"/>
<path d="M95.877 51.217L99.1472 35.7317H103.668L102.514 41.19L108.357 35.7317H113.502L106.697 42.0797L110.617 51.217H105.808L103.307 44.9652L101.335 46.7446L100.398 51.217H95.877Z" fill="#111827"/>
</g>
<g id="Group 27">
<g id="Mask group">
<mask id="mask0_237_2529" style="mask-type:alpha" maskUnits="userSpaceOnUse" x="0" y="0" width="114" height="32">
<rect id="Rectangle 2" x="0.264648" width="113.735" height="31.0188" fill="#111827"/>
</mask>
<g mask="url(#mask0_237_2529)">
<g id="image 6_layerstyle">
<g id="Group">
<path id="Vector" d="M112.049 19.8542C112.345 21.2141 112.692 23.1179 112.791 24.0574C112.914 24.997 113.013 27.9393 113.038 30.5601C113.038 33.1563 112.939 36.4447 112.791 37.854C112.642 39.2386 112.222 41.5875 111.826 43.0957C111.455 44.604 110.737 46.8292 110.243 48.0408C109.748 49.2523 108.808 51.1067 108.189 52.1204C107.546 53.1341 106.136 54.8649 105.023 55.9528C103.934 57.0407 102.327 58.3511 101.436 58.8703C100.545 59.3648 98.9622 60.1313 97.8984 60.5269C96.8594 60.9472 94.9546 61.4417 93.7177 61.6643C91.9366 61.9857 90.4523 62.0351 87.2116 61.9362C84.1193 61.8373 82.2393 61.6395 80.1613 61.1945C78.6028 60.8731 75.9805 60.0818 74.3478 59.439C72.7151 58.7714 69.7218 57.4363 67.6686 56.4225C65.64 55.4088 62.5725 53.7275 60.8656 52.7138C59.1587 51.7001 56.5859 49.994 55.1264 48.9556C53.6668 47.9171 51.8857 46.582 51.1683 46.0133C50.4509 45.4693 47.5318 43.4913 44.6622 41.6864C41.7926 39.8568 38.5272 37.8046 37.3645 37.1123C35.8802 36.2222 34.7917 35.7524 33.6538 35.5299C32.7137 35.3568 29.9678 35.2084 27.0982 35.2084C24.377 35.2084 19.2068 35.3321 15.595 35.5051C10.8206 35.7524 8.49521 35.9749 7.06041 36.3211C5.92246 36.593 4.46293 36.7661 3.62183 36.7414C2.38493 36.6672 2.08807 36.5683 1.717 36.0491C1.44488 35.7029 1.14802 34.9612 0.504836 32.2662L0.504836 30.2387C0.504836 29.8184 0.752219 28.681 1.04907 27.6673C1.46962 26.3321 1.79122 25.7387 2.2365 25.4668C2.65705 25.1948 3.20128 25.1206 3.96816 25.2195C4.58661 25.3184 6.68934 25.6151 8.66838 25.8871C10.6474 26.1591 15.9414 26.5794 20.4189 26.8019C27.0487 27.1481 29.102 27.1728 31.3779 26.9503C32.8869 26.7772 34.5691 26.4805 35.0638 26.258C35.5833 26.0602 37.1666 25.1453 38.6014 24.2552C40.0362 23.3651 43.079 21.3871 45.4043 19.9036C47.7297 18.3954 50.6241 16.4421 51.8362 15.5273C53.0484 14.6372 55.0769 13.2031 56.2891 12.3872C57.5012 11.5713 59.5298 10.2856 60.7419 9.54384C61.9541 8.80209 64.3537 7.46693 66.0606 6.55211C67.7675 5.662 70.5382 4.32685 72.2451 3.5851C73.952 2.84335 76.129 2.0027 77.069 1.706C78.0091 1.4093 80.0128 0.93952 81.5219 0.69227C83.0309 0.445019 85.3562 0.148319 86.7168 0.0494184C88.2259 -0.0494817 90.1802 -3.15167e-05 91.7881 0.197769C93.2229 0.346119 95.3257 0.766445 96.4884 1.1126C97.651 1.43402 99.4322 2.15105 100.446 2.695C101.461 3.26368 102.797 4.10433 103.415 4.59883C104.009 5.11806 104.899 5.90926 105.369 6.37903C105.815 6.84881 106.705 7.91199 107.324 8.72791C107.917 9.54384 108.833 11.0521 109.352 12.0658C109.872 13.0795 110.564 14.7114 110.911 15.6509C111.257 16.5905 111.776 18.4943 112.049 19.8542Z" fill="#111827"/>
</g>
</g>
</g>
</g>
<circle id="Ellipse 2" cx="69.3795" cy="26.3518" r="1.7737" transform="rotate(-45 69.3795 26.3518)" fill="white"/>
<circle id="Ellipse 27" cx="63.127" cy="26.3518" r="1.7737" transform="rotate(-45 63.127 26.3518)" fill="white"/>
<circle id="Ellipse 3" cx="69.3795" cy="20.0807" r="1.7737" transform="rotate(-45 69.3795 20.0807)" fill="white"/>
<circle id="Ellipse 5" cx="75.6505" cy="26.3518" r="1.7737" transform="rotate(-45 75.6505 26.3518)" fill="white"/>
<circle id="Ellipse 8" cx="81.9215" cy="26.3518" r="1.7737" transform="rotate(-45 81.9215 26.3518)" fill="white"/>
<circle id="Ellipse 11" cx="88.129" cy="26.3518" r="1.7737" transform="rotate(-45 88.129 26.3518)" fill="white"/>
<circle id="Ellipse 14" cx="94.4005" cy="26.3518" r="1.7737" transform="rotate(-45 94.4005 26.3518)" fill="white"/>
<circle id="Ellipse 17" cx="100.671" cy="26.3518" r="1.7737" transform="rotate(-45 100.671 26.3518)" fill="white"/>
<circle id="Ellipse 6" cx="75.6505" cy="20.0807" r="1.7737" transform="rotate(-45 75.6505 20.0807)" fill="white"/>
<circle id="Ellipse 9" cx="81.9215" cy="20.0807" r="1.7737" transform="rotate(-45 81.9215 20.0807)" fill="white"/>
<circle id="Ellipse 12" cx="88.129" cy="20.0807" r="1.7737" transform="rotate(-45 88.129 20.0807)" fill="white"/>
<circle id="Ellipse 15" cx="94.4005" cy="20.0807" r="1.7737" transform="rotate(-45 94.4005 20.0807)" fill="white"/>
<circle id="Ellipse 23" cx="75.6505" cy="13.8099" r="1.7737" transform="rotate(-45 75.6505 13.8099)" fill="white"/>
<circle id="Ellipse 24" cx="81.9215" cy="13.8099" r="1.7737" transform="rotate(-45 81.9215 13.8099)" fill="white"/>
<circle id="Ellipse 25" cx="88.129" cy="13.8099" r="1.7737" transform="rotate(-45 88.129 13.8099)" fill="white"/>
<circle id="Ellipse 26" cx="94.4005" cy="13.8099" r="1.7737" transform="rotate(-45 94.4005 13.8099)" fill="white"/>
<circle id="Ellipse 18" cx="100.671" cy="20.0807" r="1.7737" transform="rotate(-45 100.671 20.0807)" fill="white"/>
<ellipse id="Ellipse 85" cx="49.0769" cy="12.143" rx="10.3396" ry="10.2194" fill="white"/>
<g id="Group 20">
<path id="Vector_2" d="M47.5237 5.78144C47.5569 5.90559 47.5865 6.03076 47.6126 6.15679C47.7046 6.60775 47.7667 7.06512 47.7986 7.52594C47.8836 8.69019 47.8308 10.3301 47.2906 12.2523C46.7493 14.1746 45.9342 15.6196 45.2488 16.5886C44.9791 16.973 44.6849 17.3399 44.3681 17.6871C44.2797 17.7837 44.1887 17.8779 44.0952 17.9696C44.0618 18.0019 43.9914 18.0649 43.9729 18.0824C44.9371 19.1438 46.1943 19.8966 47.5947 20.2511C48.9928 20.6091 50.476 20.5547 51.8677 20.0945L51.8236 19.9378C51.8007 19.8492 51.7691 19.7236 51.7348 19.5624C51.6678 19.2395 51.591 18.7756 51.5487 18.1932C51.4643 17.0285 51.5165 15.3891 52.0578 13.4669C52.598 11.5446 53.4137 10.099 54.098 9.13002C54.4412 8.64551 54.7515 8.28001 54.9792 8.03209C55.0925 7.90814 55.1866 7.8141 55.2527 7.74903L55.3703 7.63148C54.4066 6.5733 53.1514 5.82283 51.7537 5.4692C50.3568 5.11105 48.8749 5.16464 47.484 5.6236L47.5237 5.78144Z" fill="#FCD34D"/>
<path id="Vector_3" d="M55.8248 8.83076C55.7381 8.91556 55.6536 9.00261 55.5714 9.09183C55.2942 9.39707 55.0377 9.72045 54.8034 10.0599C54.1984 10.9284 53.4738 12.2455 53.0115 14.0187C52.5492 15.793 52.5366 17.3055 52.6371 18.3694C52.6749 18.7833 52.7397 19.1947 52.8312 19.601C52.8643 19.7417 52.9045 19.8885 52.9246 19.958C53.9024 19.4842 54.7641 18.8046 55.4515 17.9652C56.139 17.1257 56.6362 16.1459 56.9097 15.0917C57.1856 14.0381 57.2316 12.9341 57.0446 11.854C56.8575 10.7739 56.4412 9.74338 55.8248 8.83076ZM43.1441 17.2662C43.2312 17.1813 43.316 17.0943 43.3986 17.0051C43.5911 16.794 43.8631 16.4718 44.1656 16.037C44.7711 15.168 45.4951 13.8514 45.958 12.0777C46.4198 10.304 46.4323 8.79141 46.3318 7.72758C46.2815 7.19621 46.2023 6.77797 46.1378 6.49597C46.1052 6.3547 46.065 6.20795 46.0444 6.13891C45.0667 6.61278 44.2051 7.29226 43.5178 8.1316C42.8305 8.97094 42.3333 9.95064 42.0597 11.0047C41.7838 12.0583 41.7379 13.1623 41.9249 14.2424C42.112 15.3225 42.5277 16.3536 43.1441 17.2662Z" fill="#FCD34D"/>
</g>
</g>
</g>
</svg>
