<svg width="55" height="53" viewBox="0 0 55 53" fill="none" xmlns="http://www.w3.org/2000/svg">
<path id="Vector" d="M11.6998 0L7.81741 17.5853H9.98183L13.3827 2.19816H15.5098L13.1023 17.5853H15.241L16.4213 10.0138H26.4488V17.5853H28.5524V10.0138H38.5798L39.7602 17.5853H41.8989L39.4914 2.19816H41.6184L45.0193 17.5853H47.1814L43.3014 0H11.6998ZM17.6485 2.19816H37.3527L38.2409 7.81567H16.7603L17.6485 2.19816ZM6.11345 19.7834V23.447H48.8877V19.7834H6.11345ZM6.03865 25.6452L0 53H55L48.9578 25.6452H46.7958L52.3587 50.8018H47.0996L43.1611 25.6452H41.0224L42.6819 36.2696H28.5524V25.6452H26.4488V36.2696H12.3192L13.9788 25.6452H11.8401L7.9074 50.8018H2.64359L8.20191 25.6452H6.03865ZM11.9686 38.4677H43.0326L44.9609 50.8018H10.0403L11.9686 38.4677Z" fill="#111827"/>
</svg>
