<svg width="18" height="17" viewBox="0 0 18 17" fill="none" xmlns="http://www.w3.org/2000/svg">
<g id="Union" opacity="0.6">
<path d="M12.5569 10.906L12.1009 11.359L8.13786 15.322C11.0319 17.016 13.4849 17.076 14.6769 16.965C15.1929 16.917 15.6409 16.655 16.0029 16.295L17.4229 14.883C18.3819 13.93 18.1109 12.295 16.8839 11.628L14.9739 10.589C14.1679 10.151 13.1869 10.28 12.5569 10.906Z" fill="black"/>
<path d="M6.47786 5.19698L6.19086 5.48298L6.17427 5.49956C6.04923 5.65544 5.33362 6.78098 8.06386 9.49547V9.49647C11.0189 12.4345 12.1009 11.359 12.1009 11.359L8.13786 15.3205C7.07586 14.6995 5.95585 13.8585 4.81586 12.7245C3.68697 11.6016 2.81903 10.5247 2.15206 9.52078C0.456059 6.96478 0.067856 4.88498 0.002856 3.74498C-0.032144 3.12498 0.257856 2.56698 0.690856 2.13498L2.26086 0.57498C3.13586 -0.29502 4.61086 -0.160021 5.37486 0.859979L6.63486 2.54298C7.25186 3.36698 7.18486 4.49498 6.47786 5.19698Z" fill="black"/>
</g>
</svg>
