<svg width="30" height="50" viewBox="0 0 30 50" fill="none" xmlns="http://www.w3.org/2000/svg">
<g id="Group 232">
<path id="Subtract" opacity="0.8" fill-rule="evenodd" clip-rule="evenodd" d="M0.200195 2.46667C0.200195 1.10436 1.30456 0 2.66686 0H27.3335C28.6958 0 29.8002 1.10436 29.8002 2.46667V9.69137C29.8002 12.9624 28.5008 16.0994 26.1878 18.4123L21.6777 22.9225C20.7144 23.8858 20.7144 25.4476 21.6777 26.4109L26.1878 30.921C28.5008 33.2339 29.8002 36.371 29.8002 39.642V46.8667C29.8002 48.229 28.6958 49.3333 27.3335 49.3333H2.66686C1.30456 49.3333 0.200195 48.229 0.200195 46.8667V39.642C0.200195 36.371 1.49959 33.2339 3.81254 30.921L8.32267 26.4109C9.28596 25.4476 9.28596 23.8858 8.32267 22.9225L3.81255 18.4123C1.4996 16.0994 0.200195 12.9624 0.200195 9.69137V2.46667ZM24.8669 9.1818C24.8669 10.8423 24.0816 12.3194 22.8622 13.262H22.8935C22.3961 13.6131 21.6162 14.0546 19.7215 15.0184C17.7128 16.0401 16.4311 18.0913 16.4311 20.3449V24.2608C16.4311 28.2251 18.2426 31.9615 21.3308 34.4165C24.0042 35.6809 25.8535 38.4025 25.8535 41.5561V42.4267C25.8535 43.5165 24.97 44.4 23.8802 44.4H6.12019C5.03035 44.4 4.14686 43.5165 4.14686 42.4267V41.5561C4.14686 38.3836 6.0185 35.6482 8.71782 34.3939C11.7273 32.244 13.5297 28.7649 13.5297 25.0415V20.4071C13.5297 18.396 12.4716 16.5329 10.7473 15.498C8.06996 13.8912 7.17069 13.3384 7.10695 13.262H7.13822C5.91879 12.3194 5.13353 10.8423 5.13353 9.1818C5.13353 8.4702 5.7104 7.89333 6.422 7.89333H23.5784C24.29 7.89333 24.8669 8.4702 24.8669 9.1818Z" fill="#111827"/>
</g>
</svg>
